<svg xmlns="http://www.w3.org/2000/svg" width="19" height="19" viewBox="0 0 19 19" fill="none">
    <path class="svg-path" d="M7.75882 10.5577L12.3388 5.97764C12.4812 5.83532 12.6623 5.76416 12.8822 5.76416C13.1022 5.76416 13.2833 5.83532 13.4256 5.97764C13.5679 6.11995 13.6391 6.30108 13.6391 6.52103C13.6391 6.74097 13.5679 6.9221 13.4256 7.06442L8.30221 12.1878C8.14696 12.3431 7.96583 12.4207 7.75882 12.4207C7.55182 12.4207 7.37068 12.3431 7.21543 12.1878L5.19712 10.1695C5.0548 10.0272 4.98364 9.84607 4.98364 9.62612C4.98364 9.40618 5.0548 9.22505 5.19712 9.08273C5.33943 8.94041 5.52057 8.86926 5.74051 8.86926C5.96045 8.86926 6.14158 8.94041 6.2839 9.08273L7.75882 10.5577Z" />
</svg>